HIERARCHY
ROOT joint_0
{
	OFFSET 0.000000 0.000000 0.000000
	CHANNELS 6 Xposition Yposition Zposition Zrotation Yrotation Xrotation 
	JOINT joint_1
	{
		OFFSET 6.004005 -1.946999 100.587036
		CHANNELS 3 Zrotation Yrotation Xrotation
		JOINT joint_2
		{
			OFFSET -4.601006 -0.824997 91.925903
			CHANNELS 3 Zrotation Yrotation Xrotation
			JOINT joint_3
			{
				OFFSET -5.420998 -1.130005 91.774048
				CHANNELS 3 Zrotation Yrotation Xrotation
				JOINT joint_4
				{
					OFFSET 4.308998 -3.777992 123.473999
					CHANNELS 3 Zrotation Yrotation Xrotation
					JOINT joint_5
					{
						OFFSET 25.565002 -6.305008 79.437988
						CHANNELS 3 Zrotation Yrotation Xrotation
						End Site
						{
							OFFSET 0.000000 0.000000 0.000000
						}
					}
				}
				JOINT joint_6
				{
					OFFSET -1.750000 -28.655998 68.557983
					CHANNELS 3 Zrotation Yrotation Xrotation
					JOINT joint_7
					{
						OFFSET -17.692001 -116.544006 -17.244019
						CHANNELS 3 Zrotation Yrotation Xrotation
						JOINT joint_8
						{
							OFFSET 27.063004 -23.640991 -266.895020
							CHANNELS 3 Zrotation Yrotation Xrotation
							JOINT joint_9
							{
								OFFSET 40.722000 -15.761017 -232.488953
								CHANNELS 3 Zrotation Yrotation Xrotation
								End Site
								{
									OFFSET 0.000000 0.000000 0.000000
								}
							}
						}
					}
				}
				JOINT joint_10
				{
					OFFSET 6.593002 24.457001 69.892944
					CHANNELS 3 Zrotation Yrotation Xrotation
					JOINT joint_11
					{
						OFFSET 24.311996 114.920002 -19.872925
						CHANNELS 3 Zrotation Yrotation Xrotation
						JOINT joint_12
						{
							OFFSET 21.081001 15.319000 -268.037964
							CHANNELS 3 Zrotation Yrotation Xrotation
							JOINT joint_13
							{
								OFFSET 27.794006 -8.947001 -234.744080
								CHANNELS 3 Zrotation Yrotation Xrotation
								End Site
								{
									OFFSET 0.000000 0.000000 0.000000
								}
							}
						}
					}
				}
			}
		}
	}
	JOINT joint_14
	{
		OFFSET -6.627998 -80.520004 -98.790039
		CHANNELS 3 Zrotation Yrotation Xrotation
		JOINT joint_15
		{
			OFFSET -43.638000 -13.751999 -502.538971
			CHANNELS 3 Zrotation Yrotation Xrotation
			JOINT joint_16
			{
				OFFSET -39.532999 -9.912994 -398.071007
				CHANNELS 3 Zrotation Yrotation Xrotation
				JOINT joint_17
				{
					OFFSET 174.940004 -34.660995 -75.688002
					CHANNELS 3 Zrotation Yrotation Xrotation
					End Site
					{
						OFFSET 0.000000 0.000000 0.000000
					}
				}
			}
		}
	}
	JOINT joint_18
	{
		OFFSET 12.591003 79.842003 -98.765015
		CHANNELS 3 Zrotation Yrotation Xrotation
		JOINT joint_19
		{
			OFFSET -39.080002 -1.297001 -503.101013
			CHANNELS 3 Zrotation Yrotation Xrotation
			JOINT joint_20
			{
				OFFSET -51.570000 -0.514000 -396.815987
				CHANNELS 3 Zrotation Yrotation Xrotation
				JOINT joint_21
				{
					OFFSET 178.987999 -11.521999 -73.244003
					CHANNELS 3 Zrotation Yrotation Xrotation
					End Site
					{
						OFFSET 0.000000 0.000000 0.000000
					}
				}
			}
		}
	}
}
MOTION
Frames: 13
Frame Time: 0.016667
-1310.000732 894.009644 1094.791992 -14.817590 -2.030644 -0.062699 1.027668 4.875720 0.334949 1.049012 -0.777662 -0.019908 1.084505 0.895019 0.040814 0.540693 -1.906288 -2.134257 0.000000 0.000000 0.000000 -0.984591 0.292653 1.040634 0.032984 0.355614 -0.281228 -0.513604 5.408995 -1.111832 0.000000 0.000000 0.000000 2.417728 -0.979380 0.268675 0.013269 -0.851710 -2.297006 0.854437 1.969993 6.564721 0.000000 0.000000 0.000000 11.131304 -1.870160 -2.418076 10.329449 5.401116 3.569184 10.594648 -2.248341 4.115187 0.000000 0.000000 0.000000 1.189312 -5.236360 4.337324 1.045802 7.639670 2.095532 1.020988 -2.604993 0.247816 0.000000 0.000000 0.000000 
-1310.239624 894.094971 1094.578003 -14.779443 -2.130219 -0.097219 1.050655 4.993133 0.405043 1.072293 -0.800898 -0.032529 1.110441 0.921919 0.049168 0.542943 -1.888625 -2.137010 0.000000 0.000000 0.000000 -0.978921 0.266659 1.014320 0.028455 0.332327 -0.319951 -0.512135 5.378736 -1.111694 0.000000 0.000000 0.000000 2.434454 -0.984571 0.225809 0.011132 -0.870430 -2.292006 0.849428 1.930757 6.542723 0.000000 0.000000 0.000000 11.101903 -1.873927 -2.386174 10.288727 5.599302 3.654301 10.577792 -2.339538 4.088422 0.000000 0.000000 0.000000 1.195699 -5.284901 4.328224 1.038205 7.912228 2.205914 1.010554 -2.606704 0.243458 0.000000 0.000000 0.000000 
-1310.444458 894.171814 1094.402954 -14.743146 -2.217038 -0.122137 1.073325 5.092614 0.464656 1.094534 -0.824814 -0.045576 1.135343 0.947934 0.058670 0.545063 -1.869498 -2.139072 0.000000 0.000000 0.000000 -0.982727 0.241283 0.997163 0.023334 0.310929 -0.366233 -0.511649 5.357959 -1.115344 0.000000 0.000000 0.000000 2.450301 -0.981071 0.183766 0.009386 -0.879753 -2.288470 0.844996 1.897703 6.524125 0.000000 0.000000 0.000000 11.075337 -1.866837 -2.365218 10.253126 5.752756 3.726047 10.561589 -2.410896 4.066188 0.000000 0.000000 0.000000 1.196886 -5.291367 4.324893 1.032346 8.070889 2.278425 1.003644 -2.569539 0.242993 0.000000 0.000000 0.000000 
-1310.616211 894.244690 1094.296021 -14.696451 -2.289023 -0.133091 1.091374 5.169806 0.507219 1.111182 -0.846447 -0.057036 1.154252 0.972381 0.067164 0.545121 -1.849644 -2.134735 0.000000 0.000000 0.000000 -0.998462 0.214243 0.993852 0.018209 0.289209 -0.418626 -0.513496 5.359899 -1.127689 0.000000 0.000000 0.000000 2.459420 -0.969391 0.149165 0.007886 -0.875054 -2.299281 0.842586 1.874722 6.518255 0.000000 0.000000 0.000000 11.049341 -1.849329 -2.361960 10.219530 5.861865 3.788020 10.543484 -2.460323 4.047827 0.000000 0.000000 0.000000 1.186859 -5.244313 4.325022 1.023985 8.088942 2.304418 0.997594 -2.511382 0.244204 0.000000 0.000000 0.000000 
-1310.748169 894.311584 1094.244019 -14.645383 -2.347922 -0.131329 1.107552 5.226610 0.535822 1.124790 -0.866615 -0.069754 1.170162 0.995221 0.078626 0.544345 -1.827304 -2.127309 0.000000 0.000000 0.000000 -1.026961 0.186162 1.003651 0.012379 0.268434 -0.482463 -0.516870 5.378683 -1.145279 0.000000 0.000000 0.000000 2.463106 -0.948302 0.115933 0.006808 -0.858087 -2.317451 0.841426 1.859020 6.520306 0.000000 0.000000 0.000000 11.025277 -1.818626 -2.373963 10.189874 5.923739 3.838304 10.524948 -2.488854 4.033796 0.000000 0.000000 0.000000 1.167742 -5.143867 4.329862 1.014955 7.970355 2.285460 0.993896 -2.420557 0.248441 0.000000 0.000000 0.000000 
-1310.884399 894.358948 1094.223022 -14.597439 -2.388539 -0.125443 1.121474 5.260098 0.552885 1.136219 -0.881614 -0.078387 1.183106 1.012665 0.086113 0.542234 -1.807131 -2.116372 0.000000 0.000000 0.000000 -1.058637 0.163622 1.013127 0.007823 0.250024 -0.529373 -0.521599 5.398264 -1.170888 0.000000 0.000000 0.000000 2.467761 -0.922178 0.092535 0.005733 -0.834563 -2.333623 0.840486 1.854241 6.523985 0.000000 0.000000 0.000000 11.001982 -1.794934 -2.390896 10.162075 5.958817 3.877478 10.505070 -2.503289 4.022160 0.000000 0.000000 0.000000 1.149277 -5.040669 4.341685 1.009240 7.804556 2.242635 0.993259 -2.316146 0.254782 0.000000 0.000000 0.000000 
-1311.059692 894.363220 1094.224976 -14.558887 -2.406376 -0.120688 1.132974 5.266310 0.557437 1.145981 -0.887201 -0.083274 1.193546 1.018547 0.090553 0.538698 -1.792382 -2.102370 0.000000 0.000000 0.000000 -1.086151 0.151596 1.014097 0.005960 0.235787 -0.540641 -0.527571 5.410976 -1.205619 0.000000 0.000000 0.000000 2.474815 -0.891654 0.084123 0.004651 -0.806099 -2.339133 0.838904 1.862569 6.523495 0.000000 0.000000 0.000000 10.979011 -1.792036 -2.405971 10.135351 5.978324 3.904047 10.483495 -2.508250 4.011746 0.000000 0.000000 0.000000 1.136254 -4.963449 4.366891 1.009339 7.640600 2.179727 0.995590 -2.215851 0.262064 0.000000 0.000000 0.000000 
-1311.255371 894.331665 1094.258057 -14.526875 -2.403383 -0.114628 1.141808 5.245408 0.550625 1.153370 -0.884153 -0.086256 1.201000 1.015260 0.093270 0.534316 -1.782366 -2.086909 0.000000 0.000000 0.000000 -1.112438 0.147082 1.010342 0.006193 0.224298 -0.525340 -0.535179 5.423924 -1.250238 0.000000 0.000000 0.000000 2.484058 -0.855184 0.087501 0.003629 -0.771042 -2.337500 0.836953 1.882479 6.520604 0.000000 0.000000 0.000000 10.956570 -1.801805 -2.422175 10.110418 5.973177 3.917503 10.460369 -2.500979 4.003242 0.000000 0.000000 0.000000 1.124966 -4.892736 4.405369 1.013738 7.443842 2.088511 1.000356 -2.111703 0.270581 0.000000 0.000000 0.000000 
-1311.462891 894.321045 1094.296997 -14.494291 -2.382913 -0.104721 1.148386 5.208305 0.538234 1.158940 -0.877807 -0.085988 1.206107 1.008778 0.093088 0.529732 -1.773670 -2.071204 0.000000 0.000000 0.000000 -1.142877 0.150652 1.001519 0.006697 0.217122 -0.494167 -0.542784 5.417827 -1.299526 0.000000 0.000000 0.000000 2.493498 -0.819592 0.095439 0.002352 -0.735613 -2.337496 0.835849 1.912047 6.523977 0.000000 0.000000 0.000000 10.933945 -1.827754 -2.444974 10.084168 5.962704 3.929207 10.435002 -2.481466 3.996187 0.000000 0.000000 0.000000 1.123583 -4.853853 4.431956 1.024148 7.263680 2.013245 1.011411 -1.980779 0.283336 0.000000 0.000000 0.000000 
-1311.670776 894.375916 1094.326050 -14.453633 -2.342205 -0.086062 1.150666 5.158206 0.519015 1.160853 -0.873892 -0.080914 1.207122 1.002930 0.089927 0.526535 -1.762889 -2.059242 0.000000 0.000000 0.000000 -1.171012 0.165041 0.986012 0.006053 0.218922 -0.454000 -0.548529 5.374937 -1.346304 0.000000 0.000000 0.000000 2.504213 -0.786871 0.103862 0.000847 -0.701543 -2.345344 0.836474 1.948398 6.539594 0.000000 0.000000 0.000000 10.910299 -1.874128 -2.482128 10.053928 5.955683 3.945263 10.405956 -2.448459 3.990119 0.000000 0.000000 0.000000 1.137989 -4.871163 4.423595 1.041098 7.134532 1.988560 1.031412 -1.796096 0.303107 0.000000 0.000000 0.000000 
-1311.880615 894.476013 1094.354004 -14.407008 -2.280113 -0.059905 1.148791 5.090370 0.491743 1.159230 -0.869354 -0.070405 1.203849 0.995295 0.081160 0.523324 -1.752237 -2.047329 0.000000 0.000000 0.000000 -1.197886 0.189535 0.965603 0.005061 0.228392 -0.400788 -0.553169 5.304029 -1.393317 0.000000 0.000000 0.000000 2.515916 -0.755171 0.118247 -0.000845 -0.666021 -2.359767 0.838499 1.992457 6.565094 0.000000 0.000000 0.000000 10.886100 -1.939343 -2.531262 10.021144 5.944497 3.961380 10.373757 -2.401919 3.985339 0.000000 0.000000 0.000000 1.165112 -4.934266 4.390348 1.064196 7.036127 1.996659 1.059194 -1.566978 0.328827 0.000000 0.000000 0.000000 
-1312.134888 894.584290 1094.376953 -14.373055 -2.217201 -0.038990 1.150091 5.028518 0.473182 1.160651 -0.863515 -0.060015 1.203677 0.987068 0.073548 0.521823 -1.739347 -2.040195 0.000000 0.000000 0.000000 -1.242360 0.215174 0.938718 0.004783 0.232966 -0.331848 -0.559988 5.225465 -1.456274 0.000000 0.000000 0.000000 2.530756 -0.730639 0.128154 -0.003270 -0.639941 -2.371093 0.840762 2.045422 6.593122 0.000000 0.000000 0.000000 10.862988 -2.018966 -2.575285 9.988247 5.950427 3.982683 10.342504 -2.349955 3.981903 0.000000 0.000000 0.000000 1.202747 -5.015991 4.357287 1.095235 6.971868 2.019050 1.094389 -1.346383 0.356978 0.000000 0.000000 0.000000 
-1312.464233 894.676208 1094.395020 -14.366949 -2.164026 -0.033635 1.161206 4.987396 0.481893 1.170616 -0.860108 -0.059384 1.213217 0.982846 0.072240 0.522124 -1.726001 -2.038647 0.000000 0.000000 0.000000 -1.323592 0.234714 0.906092 0.006343 0.221748 -0.242078 -0.572179 5.157340 -1.550929 0.000000 0.000000 0.000000 2.551149 -0.720114 0.125694 -0.007257 -0.633814 -2.372566 0.842854 2.115283 6.622378 0.000000 0.000000 0.000000 10.842212 -2.114463 -2.600962 9.956915 5.987400 4.013471 10.314757 -2.290733 3.981191 0.000000 0.000000 0.000000 1.253880 -5.103144 4.342234 1.139468 6.945426 2.045944 1.140896 -1.164556 0.387210 0.000000 0.000000 0.000000 
